<svg width="32" height="32" viewBox="0 0 32 32" fill="none" xmlns="http://www.w3.org/2000/svg">
<path d="M8.92707 15.9321L8.92707 15.9321L7.85151 17H11C11.5304 17 12.0391 17.2107 12.4142 17.5858C12.7893 17.9608 13 18.4696 13 19C13 19.5304 12.7893 20.0391 12.4142 20.4142C12.0391 20.7893 11.5304 21 11 21H3C2.46957 21 1.96086 20.7893 1.58579 20.4142C1.21071 20.0391 1 19.5304 1 19V11C1 10.4696 1.21071 9.96085 1.58579 9.58577C1.96086 9.2107 2.46957 8.99999 3 8.99999C3.53043 8.99999 4.03914 9.2107 4.41421 9.58577C4.78929 9.96085 5 10.4696 5 11V14.1934L6.10308 13.0977C6.10345 13.0973 6.10382 13.097 6.10419 13.0966C8.06226 11.14 10.5564 9.80772 13.2715 9.26822C15.987 8.72863 18.8016 9.00632 21.3594 10.0662C23.9171 11.1261 26.1032 12.9205 27.6412 15.2227C29.1792 17.5249 30 20.2314 30 23C30 23.5304 29.7893 24.0391 29.4142 24.4142C29.0391 24.7893 28.5304 25 28 25C27.4696 25 26.9609 24.7893 26.5858 24.4142C26.2107 24.0392 26 23.5305 26 23.0001L8.92707 15.9321ZM8.92707 15.9321L8.92955 15.9297M8.92707 15.9321L8.92955 15.9297M8.92955 15.9297C10.3281 14.5314 12.1098 13.5792 14.0494 13.1934C15.9891 12.8077 17.9996 13.0057 19.8267 13.7625C21.6538 14.5192 23.2155 15.8008 24.3143 17.445C25.4131 19.0893 25.9997 21.0224 26 23L8.92955 15.9297Z" fill="#FFCC70" stroke="black" stroke-width="2"/>
</svg>
