<svg width="32" height="32" viewBox="0 0 32 32" fill="none" xmlns="http://www.w3.org/2000/svg">
<path d="M16.0011 2H16C13.2311 2 10.5243 2.82109 8.22202 4.35943C5.91973 5.89777 4.12532 8.08427 3.06569 10.6424C2.00607 13.2006 1.72882 16.0155 2.26901 18.7313C2.80921 21.447 4.14258 23.9416 6.10051 25.8995C8.05845 27.8574 10.553 29.1908 13.2687 29.731C15.9845 30.2712 18.7994 29.9939 21.3576 28.9343C23.9157 27.8747 26.1022 26.0803 27.6406 23.778C29.1789 21.4757 30 18.7689 30 16V15.9989C29.9961 12.2874 28.5199 8.72899 25.8955 6.10452C23.271 3.48006 19.7126 2.00392 16.0011 2ZM15.9989 26C14.0215 25.9998 12.0885 25.4133 10.4443 24.3147C8.79981 23.2159 7.51809 21.6541 6.76121 19.8268C6.00433 17.9996 5.8063 15.9889 6.19215 14.0491C6.57801 12.1093 7.53041 10.3275 8.92894 8.92893C10.3275 7.53041 12.1093 6.578 14.0491 6.19215C15.9889 5.80629 17.9996 6.00433 19.8268 6.7612C21.6541 7.51808 23.2159 8.79981 24.3147 10.4443C25.4133 12.0885 25.9998 14.0214 26 15.9989C25.997 18.6504 24.9423 21.1925 23.0674 23.0674C21.1925 24.9423 18.6505 25.997 15.9989 26Z" fill="#31A9C8" stroke="black" stroke-width="1.5"/>
</svg>
