<svg width="32" height="32" viewBox="0 0 32 32" fill="none" xmlns="http://www.w3.org/2000/svg">
<path d="M26.4146 23.5853L26.4146 23.5853L18.8281 15.9999L26.4146 8.41461L26.4146 8.41455C26.7898 8.03938 27.0006 7.53053 27.0006 6.99995C27.0006 6.46936 26.7898 5.96052 26.4146 5.58534C26.0394 5.21016 25.5306 4.99939 25 4.99939C24.4694 4.99939 23.9606 5.21016 23.5854 5.58534L23.5853 5.58539L16 13.1719L8.41467 5.58539L8.41461 5.58534C8.03944 5.21016 7.53059 4.99939 7.00001 4.99939C6.46943 4.99939 5.96058 5.21016 5.5854 5.58534C5.21022 5.96052 4.99945 6.46937 4.99945 6.99995C4.99945 7.53053 5.21022 8.03938 5.5854 8.41455L5.58545 8.41461L13.1719 15.9999L5.58545 23.5853L5.5854 23.5853C5.21022 23.9605 4.99945 24.4694 4.99945 24.9999C4.99945 25.5305 5.21022 26.0394 5.5854 26.4146C5.96058 26.7897 6.46943 27.0005 7.00001 27.0005C7.53059 27.0005 8.03944 26.7897 8.41461 26.4146L8.41467 26.4145L16 18.828L23.5853 26.4145L23.5854 26.4146C23.7712 26.6003 23.9917 26.7477 24.2344 26.8482C24.4771 26.9488 24.7373 27.0005 25 27.0005C25.2627 27.0005 25.5229 26.9488 25.7656 26.8482C26.0083 26.7477 26.2288 26.6003 26.4146 26.4146C26.6004 26.2288 26.7477 26.0082 26.8483 25.7655C26.9488 25.5228 27.0006 25.2627 27.0006 24.9999C27.0006 24.7372 26.9488 24.4771 26.8483 24.2344C26.7477 23.9917 26.6004 23.7711 26.4146 23.5853Z" fill="#ED5F32" stroke="black" stroke-width="2"/>
</svg>
